<?xml version="1.0" encoding="utf-8"?>
<COLLADA xmlns="http://www.collada.org/2005/11/COLLADASchema" version="1.4.1" xmlns:xsi="http://www.w3.org/2001/XMLSchema-instance">
  <asset>
    <contributor>
      <author>Blender User</author>
      <authoring_tool>Blender 3.0.1 commit date:2022-01-25, commit time:17:19, hash:dc2d18018171</authoring_tool>
    </contributor>
    <created>2024-12-20T15:01:01</created>
    <modified>2024-12-20T15:01:01</modified>
    <unit name="meter" meter="1"/>
    <up_axis>Z_UP</up_axis>
  </asset>
  <library_effects>
    <effect id="miiWeaponShell11B-effect">
      <profile_COMMON>
        <newparam sid="miiWeaponShell11B_ALB_png-surface">
          <surface type="2D">
            <init_from>miiWeaponShell11B_ALB_png</init_from>
          </surface>
        </newparam>
        <newparam sid="miiWeaponShell11B_ALB_png-sampler">
          <sampler2D>
            <source>miiWeaponShell11B_ALB_png-surface</source>
          </sampler2D>
        </newparam>
        <technique sid="common">
          <lambert>
            <emission>
              <color sid="emission">0 0 0 1</color>
            </emission>
            <diffuse>
              <texture texture="miiWeaponShell11B_ALB_png-sampler" texcoord="Weapon_Root__miiWeaponShell11B-texcoord"/>
            </diffuse>
            <index_of_refraction>
              <float sid="ior">1.45</float>
            </index_of_refraction>
          </lambert>
        </technique>
      </profile_COMMON>
    </effect>
    <effect id="miiWeaponShell11A-effect">
      <profile_COMMON>
        <newparam sid="miiWeaponShell11A_ALB_png-surface">
          <surface type="2D">
            <init_from>miiWeaponShell11A_ALB_png</init_from>
          </surface>
        </newparam>
        <newparam sid="miiWeaponShell11A_ALB_png-sampler">
          <sampler2D>
            <source>miiWeaponShell11A_ALB_png-surface</source>
          </sampler2D>
        </newparam>
        <technique sid="common">
          <lambert>
            <emission>
              <color sid="emission">0 0 0 1</color>
            </emission>
            <diffuse>
              <texture texture="miiWeaponShell11A_ALB_png-sampler" texcoord="Weapon_Root__miiWeaponShell11A-texcoord"/>
            </diffuse>
            <index_of_refraction>
              <float sid="ior">1.45</float>
            </index_of_refraction>
          </lambert>
        </technique>
      </profile_COMMON>
    </effect>
  </library_effects>
  <library_images>
    <image id="miiWeaponShell11A_ALB_png" name="miiWeaponShell11A_ALB_png">
      <init_from>miiWeaponShell11A_ALB.png</init_from>
    </image>
    <image id="miiWeaponShell11B_ALB_png" name="miiWeaponShell11B_ALB_png">
      <init_from>miiWeaponShell11B_ALB.png</init_from>
    </image>
  </library_images>
  <library_materials>
    <material id="miiWeaponShell11B-material" name="miiWeaponShell11B">
      <instance_effect url="#miiWeaponShell11B-effect"/>
    </material>
    <material id="miiWeaponShell11A-material" name="miiWeaponShell11A">
      <instance_effect url="#miiWeaponShell11A-effect"/>
    </material>
  </library_materials>
  <library_geometries>
    <geometry id="Weapon_Root__miiWeaponShell11B-mesh" name="Weapon_Root__miiWeaponShell11B">
      <mesh>
        <source id="Weapon_Root__miiWeaponShell11B-mesh-positions">
          <float_array id="Weapon_Root__miiWeaponShell11B-mesh-positions-array" count="366">1.654906 1.313763 0.1144726 1.367201 1.787137 0.1144726 0.7432392 0.9574719 0.1144726 0.8682036 2.053832 0.1144726 1.660758 0.7495598 0.1144726 1.733149 1.353044 0 1.747152 0.7261012 0 1.414765 1.860661 0 0.8779188 2.13906 0 1.665554 0.6601694 0 0.733524 0.8722428 0 1.654906 1.313763 -0.1144726 0.7432392 0.9574719 -0.1144726 1.367201 1.787137 -0.1144726 0.8682036 2.053832 -0.1144726 1.660758 0.7495598 -0.1144726 1.733149 1.353044 0 1.747152 0.7261012 0 1.414765 1.860661 0 0.8779188 2.13906 0 1.665554 0.6601694 0 0.733524 0.8722428 0 -0.6790465 4.277053 -0.9346282 -1.098722 4.277053 -0.3569962 -0.5663372 5.094408 -0.7794952 -0.9163517 5.094408 -0.2977414 -1.098722 4.277053 -0.3569962 -1.098721 4.277053 0.3569962 -0.9163517 5.094408 -0.2977414 -0.9163517 5.094408 0.2977414 -1.098721 4.277053 0.3569962 -0.6790465 4.277053 0.9346282 -0.9163517 5.094408 0.2977414 -0.5663361 5.094408 0.7794952 -0.6790465 4.277053 0.9346282 0 4.277053 1.155264 -0.5663361 5.094408 0.7794952 0 5.094408 0.9635098 0 4.277053 1.155264 0.6790465 4.277053 0.9346282 0 5.094408 0.9635098 0.5663361 5.094408 0.7794952 0.6790465 4.277053 0.9346282 1.098722 4.277053 0.3569962 0.5663361 5.094408 0.7794952 0.9163517 5.094408 0.2977414 1.098722 4.277053 0.3569962 1.098721 4.277053 -0.3569962 0.9163517 5.094408 0.2977414 0.9163517 5.094408 -0.2977414 1.098721 4.277053 -0.3569962 0.6790465 4.277053 -0.9346282 0.9163517 5.094408 -0.2977414 0.5663361 5.094408 -0.7794952 0.6790465 4.277053 -0.9346282 0 4.277053 -1.155264 0.5663361 5.094408 -0.7794952 0 5.094408 -0.9635098 0 4.277053 -1.155264 -0.6790465 4.277053 -0.9346282 0 5.094408 -0.9635098 -0.5663372 5.094408 -0.7794952 -0.5712256 5.911763 -0.185603 -0.1689776 6.447727 0 -0.3530373 5.911763 -0.485914 0 6.447727 -0.1688412 -0.5712256 5.911763 -0.185603 -0.5712256 5.911763 0.185603 -0.1689776 6.447727 0 -0.5712256 5.911763 0.185603 -0.3530373 5.911763 0.485914 -0.1689776 6.447727 0 0 6.447727 0.1688412 -0.3530373 5.911763 0.485914 0 5.911763 0.6006231 0 6.447727 0.1688412 0 5.911763 0.6006231 0.3530373 5.911763 0.485914 0 6.447727 0.1688412 0.5712256 5.911763 0.185603 0.1689776 6.447727 0 0.3530373 5.911763 0.485914 0 6.447727 0.1688412 0.5712256 5.911763 0.185603 0.5712256 5.911763 -0.185603 0.1689776 6.447727 0 0.5712256 5.911763 -0.185603 0.3530373 5.911763 -0.485914 0.1689776 6.447727 0 0 6.447727 -0.1688412 0.3530373 5.911763 -0.485914 0 5.911763 -0.6006231 0 6.447727 -0.1688412 0 5.911763 -0.6006231 -0.3530373 5.911763 -0.485914 0 6.447727 -0.1688412 0 6.545 0 0 6.545 0 0 6.545 0 0 6.545 0 -1.654906 1.313763 -0.1144726 -1.367201 1.787137 -0.1144726 -0.7432392 0.9574719 -0.1144726 -0.8682036 2.053832 -0.1144726 -1.660758 0.7495598 -0.1144726 -1.733149 1.353044 0 -1.747152 0.7261012 0 -1.414765 1.860661 0 -0.8779188 2.13906 0 -1.665554 0.6601694 0 -0.733524 0.8722428 0 -1.654906 1.313763 0.1144726 -0.7432392 0.9574719 0.1144726 -1.367201 1.787137 0.1144726 -0.8682036 2.053832 0.1144726 -1.660758 0.7495598 0.1144726 -1.733149 1.353044 0 -1.747152 0.7261012 0 -1.414765 1.860661 0 -0.8779188 2.13906 0 -1.665554 0.6601694 0 -0.733524 0.8722428 0</float_array>
          <technique_common>
            <accessor source="#Weapon_Root__miiWeaponShell11B-mesh-positions-array" count="122" stride="3">
              <param name="X" type="float"/>
              <param name="Y" type="float"/>
              <param name="Z" type="float"/>
            </accessor>
          </technique_common>
        </source>
        <source id="Weapon_Root__miiWeaponShell11B-mesh-normals">
          <float_array id="Weapon_Root__miiWeaponShell11B-mesh-normals-array" count="300">0.4858326 0.1304078 0.8642688 0.350485 0.3598545 0.8646763 -0.09366297 -0.4134113 0.9057143 0.2533988 0.4866551 0.8360359 0.328329 -0.4071915 0.8522883 0.7645652 0.2375304 0.5991821 0.725864 -0.3201444 0.6087931 0.5361667 0.5938791 0.5998609 0.377134 0.7272579 0.5734683 0.1603177 -0.774701 0.611667 -0.1772251 -0.7818717 0.5977188 0.4858326 0.1304078 -0.8642688 -0.09366297 -0.4134113 -0.9057143 0.350485 0.3598545 -0.8646763 0.2533988 0.4866551 -0.8360359 0.328329 -0.4071915 -0.8522883 0.7645652 0.2375304 -0.5991821 0.725864 -0.3201444 -0.6087931 0.5361667 0.5938791 -0.5998609 0.377134 0.7272579 -0.5734683 0.1603177 -0.774701 -0.611667 -0.1772251 -0.7818717 -0.5977188 -0.7896045 0.2177577 -0.573678 -0.7719761 0.2991159 -0.5608767 -0.9760036 0.2177544 0 -0.9542158 0.2991194 0 -0.7896045 0.2177577 0.573678 -0.7719761 0.2991159 0.5608767 -0.3015898 0.2177538 0.9282386 -0.2948465 0.2991192 0.9075205 0.3015898 0.2177538 0.9282386 0.2948465 0.2991192 0.9075205 0.7896045 0.2177577 0.573678 0.7719761 0.2991159 0.5608767 0.9760036 0.2177544 0 0.9542158 0.2991194 0 0.7896045 0.2177577 -0.573678 0.7719761 0.2991159 -0.5608767 0.3015898 0.2177538 -0.9282386 0.2948465 0.2991192 -0.9075205 -0.3015898 0.2177538 -0.9282386 -0.2948465 0.2991192 -0.9075205 -0.6983975 0.5047542 -0.5074094 -0.5228279 0.6973683 -0.4902331 -0.6881165 0.5112577 -0.5148895 -0.5001135 0.7066655 -0.5005102 -0.8749493 0.4842145 0 -0.7998132 0.6002491 0 -0.6983975 0.5047542 0.5074094 -0.6881165 0.5112577 0.5148895 -0.5228279 0.6973683 0.4902331 -0.5001135 0.7066655 0.5005102 -0.2702179 0.4850128 0.8317121 -0.2691778 0.4910511 0.8285 -0.2452816 0.6081838 0.75495 0.2691778 0.4910511 0.8285 0.2702179 0.4850128 0.8317121 0.2452816 0.6081838 0.75495 0.6983975 0.5047542 0.5074094 0.5228279 0.6973683 0.4902331 0.6881165 0.5112577 0.5148895 0.5001135 0.7066655 0.5005102 0.8749493 0.4842145 0 0.7998132 0.6002491 0 0.6983975 0.5047542 -0.5074094 0.6881165 0.5112577 -0.5148895 0.5228279 0.6973683 -0.4902331 0.5001135 0.7066655 -0.5005102 0.2702179 0.4850128 -0.8317121 0.2691778 0.4910511 -0.8285 0.2452816 0.6081838 -0.75495 -0.2691778 0.4910511 -0.8285 -0.2702179 0.4850128 -0.8317121 -0.2452816 0.6081838 -0.75495 -0.4463496 0.7753818 -0.4467158 -0.4463496 0.7753818 0.4467158 0.4463496 0.7753818 0.4467158 0.4463496 0.7753818 -0.4467158 -0.4858326 0.1304078 -0.8642688 -0.350485 0.3598545 -0.8646763 0.09366297 -0.4134113 -0.9057143 -0.2533988 0.4866551 -0.8360359 -0.328329 -0.4071915 -0.8522883 -0.7645652 0.2375304 -0.5991821 -0.725864 -0.3201444 -0.6087931 -0.5361667 0.5938791 -0.5998609 -0.377134 0.7272579 -0.5734683 -0.1603177 -0.774701 -0.611667 0.1772251 -0.7818717 -0.5977188 -0.4858326 0.1304078 0.8642688 0.09366297 -0.4134113 0.9057143 -0.350485 0.3598545 0.8646763 -0.2533988 0.4866551 0.8360359 -0.328329 -0.4071915 0.8522883 -0.7645652 0.2375304 0.5991821 -0.725864 -0.3201444 0.6087931 -0.5361667 0.5938791 0.5998609 -0.377134 0.7272579 0.5734683 -0.1603177 -0.774701 0.611667 0.1772251 -0.7818717 0.5977188</float_array>
          <technique_common>
            <accessor source="#Weapon_Root__miiWeaponShell11B-mesh-normals-array" count="100" stride="3">
              <param name="X" type="float"/>
              <param name="Y" type="float"/>
              <param name="Z" type="float"/>
            </accessor>
          </technique_common>
        </source>
        <source id="Weapon_Root__miiWeaponShell11B-mesh-map-0">
          <float_array id="Weapon_Root__miiWeaponShell11B-mesh-map-0-array" count="636">-0.0881704 0.745883 -0.1736609 0.866199 -0.327841 0.629763 -0.1736609 0.866199 -0.311606 0.93147 -0.327841 0.629763 -0.327841 0.629763 -0.08086639 0.598634 -0.0881704 0.745883 -0.05297964 0.762361 -0.0881704 0.745883 -0.04461085 0.58184 -0.04461085 0.58184 -0.0881704 0.745883 -0.08086639 0.598634 -0.0881704 0.745883 -0.05297964 0.762361 -0.1736609 0.866199 -0.1736609 0.866199 -0.05297964 0.762361 -0.152076 0.898593 -0.1736609 0.866199 -0.152076 0.898593 -0.311606 0.93147 -0.311606 0.93147 -0.152076 0.898593 -0.302937 0.968997 -0.06633526 0.562253 -0.08086639 0.598634 -0.330389 0.590788 -0.330389 0.590788 -0.08086639 0.598634 -0.327841 0.629763 -0.08086639 0.598634 -0.06633526 0.562253 -0.04461085 0.58184 0.08817028 0.745883 0.327841 0.629763 0.1736609 0.866199 0.1736609 0.866199 0.327841 0.629763 0.311606 0.93147 0.327841 0.629763 0.08817028 0.745883 0.08086639 0.598634 0.05297964 0.762361 0.04461085 0.58184 0.08817028 0.745883 0.08817028 0.745883 0.04461085 0.58184 0.08086639 0.598634 0.08817028 0.745883 0.1736609 0.866199 0.05297964 0.762361 0.05297964 0.762361 0.1736609 0.866199 0.152076 0.898593 0.1736609 0.866199 0.311606 0.93147 0.152076 0.898593 0.152076 0.898593 0.311606 0.93147 0.302937 0.968997 0.06633526 0.562253 0.330389 0.590788 0.08086639 0.598634 0.08086639 0.598634 0.330389 0.590788 0.327841 0.629763 0.08086639 0.598634 0.04461085 0.58184 0.06633526 0.562253 0.687222 0 0.937778 0 0.7015 0.305141 0.7015 0.305141 0.937778 0 0.923089 0.305141 0.374722 0 0.625278 0 0.389 0.305141 0.389 0.305141 0.625278 0 0.610589 0.305141 0.687222 0 0.937778 0 0.7015 0.305141 0.7015 0.305141 0.937778 0 0.923089 0.305141 0.374722 0 0.625278 0 0.389 0.305141 0.389 0.305141 0.625278 0 0.610589 0.305141 0.374722 0 0.625278 0 0.389 0.305141 0.389 0.305141 0.625278 0 0.610589 0.305141 0.687222 0 0.937778 0 0.7015 0.305141 0.7015 0.305141 0.937778 0 0.923089 0.305141 0.374722 0 0.625278 0 0.389 0.305141 0.389 0.305141 0.625278 0 0.610589 0.305141 0.687222 0 0.937778 0 0.7015 0.305141 0.7015 0.305141 0.937778 0 0.923089 0.305141 0.374722 0 0.625278 0 0.389 0.305141 0.389 0.305141 0.625278 0 0.610589 0.305141 0.374722 0 0.625278 0 0.389 0.305141 0.389 0.305141 0.625278 0 0.610589 0.305141 0.883394 0.659612 0.856809 0.933537 0.741606 0.659612 0.741606 0.659612 0.856809 0.933537 0.768191 0.933537 0.429106 0.659612 0.570894 0.659612 0.503436 0.936586 0.741606 0.659612 0.883394 0.659612 0.768191 0.933537 0.768191 0.933537 0.883394 0.659612 0.856809 0.933537 0.429106 0.659612 0.570894 0.659612 0.503436 0.936586 0.429106 0.659612 0.570894 0.659612 0.503436 0.936586 0.883394 0.659612 0.856809 0.933537 0.741606 0.659612 0.741606 0.659612 0.856809 0.933537 0.768191 0.933537 0.429106 0.659612 0.570894 0.659612 0.503436 0.936586 0.741606 0.659612 0.883394 0.659612 0.768191 0.933537 0.768191 0.933537 0.883394 0.659612 0.856809 0.933537 0.429106 0.659612 0.570894 0.659612 0.503436 0.936586 0.429106 0.659612 0.570894 0.659612 0.503436 0.936586 0.768191 0.933537 0.856809 0.933537 0.8125 1 0.768191 0.933537 0.856809 0.933537 0.8125 1 0.768191 0.933537 0.856809 0.933537 0.8125 1 0.768191 0.933537 0.856809 0.933537 0.8125 1 0.7015 0.305141 0.923089 0.305141 0.741606 0.659612 0.741606 0.659612 0.923089 0.305141 0.883394 0.659612 0.389 0.305141 0.610589 0.305141 0.429106 0.659612 0.429106 0.659612 0.610589 0.305141 0.570894 0.659612 0.389 0.305141 0.610589 0.305141 0.429106 0.659612 0.429106 0.659612 0.610589 0.305141 0.570894 0.659612 0.7015 0.305141 0.923089 0.305141 0.741606 0.659612 0.741606 0.659612 0.923089 0.305141 0.883394 0.659612 0.389 0.305141 0.610589 0.305141 0.429106 0.659612 0.429106 0.659612 0.610589 0.305141 0.570894 0.659612 0.7015 0.305141 0.923089 0.305141 0.741606 0.659612 0.741606 0.659612 0.923089 0.305141 0.883394 0.659612 0.389 0.305141 0.610589 0.305141 0.429106 0.659612 0.429106 0.659612 0.610589 0.305141 0.570894 0.659612 0.389 0.305141 0.610589 0.305141 0.429106 0.659612 0.429106 0.659612 0.610589 0.305141 0.570894 0.659612 0.7015 0.305141 0.923089 0.305141 0.741606 0.659612 0.741606 0.659612 0.923089 0.305141 0.883394 0.659612 0.389 0.305141 0.610589 0.305141 0.429106 0.659612 0.429106 0.659612 0.610589 0.305141 0.570894 0.659612 -0.0881704 0.745883 -0.1736609 0.866199 -0.327841 0.629763 -0.1736609 0.866199 -0.311606 0.93147 -0.327841 0.629763 -0.327841 0.629763 -0.08086639 0.598634 -0.0881704 0.745883 -0.05297964 0.762361 -0.0881704 0.745883 -0.04461085 0.58184 -0.04461085 0.58184 -0.0881704 0.745883 -0.08086639 0.598634 -0.0881704 0.745883 -0.05297964 0.762361 -0.1736609 0.866199 -0.1736609 0.866199 -0.05297964 0.762361 -0.152076 0.898593 -0.1736609 0.866199 -0.152076 0.898593 -0.311606 0.93147 -0.311606 0.93147 -0.152076 0.898593 -0.302937 0.968997 -0.06633526 0.562253 -0.08086639 0.598634 -0.330389 0.590788 -0.330389 0.590788 -0.08086639 0.598634 -0.327841 0.629763 -0.08086639 0.598634 -0.06633526 0.562253 -0.04461085 0.58184 0.08817028 0.745883 0.327841 0.629763 0.1736609 0.866199 0.1736609 0.866199 0.327841 0.629763 0.311606 0.93147 0.327841 0.629763 0.08817028 0.745883 0.08086639 0.598634 0.05297964 0.762361 0.04461085 0.58184 0.08817028 0.745883 0.08817028 0.745883 0.04461085 0.58184 0.08086639 0.598634 0.08817028 0.745883 0.1736609 0.866199 0.05297964 0.762361 0.05297964 0.762361 0.1736609 0.866199 0.152076 0.898593 0.1736609 0.866199 0.311606 0.93147 0.152076 0.898593 0.152076 0.898593 0.311606 0.93147 0.302937 0.968997 0.06633526 0.562253 0.330389 0.590788 0.08086639 0.598634 0.08086639 0.598634 0.330389 0.590788 0.327841 0.629763 0.08086639 0.598634 0.04461085 0.58184 0.06633526 0.562253</float_array>
          <technique_common>
            <accessor source="#Weapon_Root__miiWeaponShell11B-mesh-map-0-array" count="318" stride="2">
              <param name="S" type="float"/>
              <param name="T" type="float"/>
            </accessor>
          </technique_common>
        </source>
        <vertices id="Weapon_Root__miiWeaponShell11B-mesh-vertices">
          <input semantic="POSITION" source="#Weapon_Root__miiWeaponShell11B-mesh-positions"/>
        </vertices>
        <triangles material="miiWeaponShell11B-material" count="106">
          <input semantic="VERTEX" source="#Weapon_Root__miiWeaponShell11B-mesh-vertices" offset="0"/>
          <input semantic="NORMAL" source="#Weapon_Root__miiWeaponShell11B-mesh-normals" offset="1"/>
          <input semantic="TEXCOORD" source="#Weapon_Root__miiWeaponShell11B-mesh-map-0" offset="2" set="0"/>
          <p>0 0 0 1 1 1 2 2 2 1 1 3 3 3 4 2 2 5 2 2 6 4 4 7 0 0 8 5 5 9 0 0 10 6 6 11 6 6 12 0 0 13 4 4 14 0 0 15 5 5 16 1 1 17 1 1 18 5 5 19 7 7 20 1 1 21 7 7 22 3 3 23 3 3 24 7 7 25 8 8 26 9 9 27 4 4 28 10 10 29 10 10 30 4 4 31 2 2 32 4 4 33 9 9 34 6 6 35 11 11 36 12 12 37 13 13 38 13 13 39 12 12 40 14 14 41 12 12 42 11 11 43 15 15 44 16 16 45 17 17 46 11 11 47 11 11 48 17 17 49 15 15 50 11 11 51 13 13 52 16 16 53 16 16 54 13 13 55 18 18 56 13 13 57 14 14 58 18 18 59 18 18 60 14 14 61 19 19 62 20 20 63 21 21 64 15 15 65 15 15 66 21 21 67 12 12 68 15 15 69 17 17 70 20 20 71 22 22 72 23 22 73 24 23 74 24 23 75 23 22 76 25 23 77 26 24 78 27 24 79 28 25 80 28 25 81 27 24 82 29 25 83 30 26 84 31 26 85 32 27 86 32 27 87 31 26 88 33 27 89 34 28 90 35 28 91 36 29 92 36 29 93 35 28 94 37 29 95 38 30 96 39 30 97 40 31 98 40 31 99 39 30 100 41 31 101 42 32 102 43 32 103 44 33 104 44 33 105 43 32 106 45 33 107 46 34 108 47 34 109 48 35 110 48 35 111 47 34 112 49 35 113 50 36 114 51 36 115 52 37 116 52 37 117 51 36 118 53 37 119 54 38 120 55 38 121 56 39 122 56 39 123 55 38 124 57 39 125 58 40 126 59 40 127 60 41 128 60 41 129 59 40 130 61 41 131 62 42 132 63 43 133 64 44 134 64 44 135 63 43 136 65 45 137 66 46 138 67 46 139 68 47 140 69 48 141 70 49 142 71 50 143 71 50 144 70 49 145 72 51 146 73 52 147 74 53 148 75 54 149 76 55 150 77 56 151 78 57 152 79 58 153 80 59 154 81 60 155 81 60 156 80 59 157 82 61 158 83 62 159 84 62 160 85 63 161 86 64 162 87 65 163 88 66 164 88 66 165 87 65 166 89 67 167 90 68 168 91 69 169 92 70 170 93 71 171 94 72 172 95 73 173 65 45 174 63 43 175 96 74 176 71 50 177 72 51 178 97 75 179 82 61 180 80 59 181 98 76 182 88 66 183 89 67 184 99 77 185 44 33 186 45 33 187 81 60 188 81 60 189 45 33 190 79 58 191 40 31 192 41 31 193 76 55 194 76 55 195 41 31 196 77 56 197 36 29 198 37 29 199 73 52 200 73 52 201 37 29 202 74 53 203 32 27 204 33 27 205 69 48 206 69 48 207 33 27 208 70 49 209 28 25 210 29 25 211 66 46 212 66 46 213 29 25 214 67 46 215 24 23 216 25 23 217 64 44 218 64 44 219 25 23 220 62 42 221 60 41 222 61 41 223 93 71 224 93 71 225 61 41 226 94 72 227 56 39 228 57 39 229 90 68 230 90 68 231 57 39 232 91 69 233 52 37 234 53 37 235 86 64 236 86 64 237 53 37 238 87 65 239 48 35 240 49 35 241 83 62 242 83 62 243 49 35 244 84 62 245 100 78 246 101 79 247 102 80 248 101 79 249 103 81 250 102 80 251 102 80 252 104 82 253 100 78 254 105 83 255 100 78 256 106 84 257 106 84 258 100 78 259 104 82 260 100 78 261 105 83 262 101 79 263 101 79 264 105 83 265 107 85 266 101 79 267 107 85 268 103 81 269 103 81 270 107 85 271 108 86 272 109 87 273 104 82 274 110 88 275 110 88 276 104 82 277 102 80 278 104 82 279 109 87 280 106 84 281 111 89 282 112 90 283 113 91 284 113 91 285 112 90 286 114 92 287 112 90 288 111 89 289 115 93 290 116 94 291 117 95 292 111 89 293 111 89 294 117 95 295 115 93 296 111 89 297 113 91 298 116 94 299 116 94 300 113 91 301 118 96 302 113 91 303 114 92 304 118 96 305 118 96 306 114 92 307 119 97 308 120 98 309 121 99 310 115 93 311 115 93 312 121 99 313 112 90 314 115 93 315 117 95 316 120 98 317</p>
        </triangles>
      </mesh>
    </geometry>
    <geometry id="Weapon_Root__miiWeaponShell11A-mesh" name="Weapon_Root__miiWeaponShell11A">
      <mesh>
        <source id="Weapon_Root__miiWeaponShell11A-mesh-positions">
          <float_array id="Weapon_Root__miiWeaponShell11A-mesh-positions-array" count="246">0 0.6682764 0 -0.7661017 0.6682764 -0.2489212 -0.4734774 0.6682764 -0.6516851 -0.7661017 0.6682764 0.2489212 -0.4734774 0.6682764 0.6516851 0 0.6682764 0.8055267 0.4734774 0.6682764 0.6516851 0.7661017 0.6682764 0.2489212 0.7661017 0.6682764 -0.2489212 0.4734774 0.6682764 -0.6516851 0 0.6682764 -0.8055267 -0.4734774 0.6682764 -0.6516851 -0.7661017 0.6682764 -0.2489212 -0.569019 1.630651 -0.7831868 -0.9206923 1.630651 -0.2991505 -0.7661017 0.6682764 0.2489212 -0.9206913 1.630651 0.2991516 -0.4734774 0.6682764 0.6516851 -0.569019 1.630651 0.7831868 0 0.6682764 0.8055267 0 1.630651 0.9680726 0.4734774 0.6682764 0.6516851 0.569019 1.630651 0.7831868 0.7661017 0.6682764 0.2489212 0.9206923 1.630651 0.2991505 0.7661017 0.6682764 -0.2489212 0.9206913 1.630651 -0.2991505 0.4734774 0.6682764 -0.6516851 0.569019 1.630651 -0.7831868 0 0.6682764 -0.8055267 0 1.630651 -0.9680726 0 0.6682764 -0.8055267 0 1.630651 -0.9680726 1.064257 3.196974 0.3457982 1.064255 3.196974 -0.3457982 0.6577472 3.196974 0.9053099 0 3.196974 1.11903 -0.6577461 3.196974 0.905311 -1.064255 3.196974 0.3457982 -1.064257 3.196974 -0.3457982 -0.6577472 3.196974 -0.9053099 0 3.196974 -1.11903 0.6577461 3.196974 -0.9053099 0 3.196974 -1.11903 1.098722 4.277053 0.3569962 1.098721 4.277053 -0.3569962 0.6790465 4.277053 0.9346282 0 4.277053 1.155264 -0.6790465 4.277053 0.9346282 -1.098721 4.277053 0.3569962 -1.098722 4.277053 -0.3569962 -0.6790465 4.277053 -0.9346282 0 4.277053 -1.155264 0.6790465 4.277053 -0.9346282 0 4.277053 -1.155264 0.4217301 0 -0.4217301 0 0 -0.5964167 0.2691216 0.7356284 -0.2691216 0 0.7356284 -0.3805956 0 0 -0.5964167 -0.4217301 0 -0.4217301 0 0.7356284 -0.3805956 -0.2691216 0.7356284 -0.2691216 -0.5964167 0 0 -0.3805956 0.7356284 0 -0.4217301 0 0.4217301 -0.2691216 0.7356284 0.2691216 0 0 0.5964167 0 0.7356284 0.3805956 0.4217301 0 0.4217301 0.2691216 0.7356284 0.2691216 0.5964167 0 0 0.3805956 0.7356284 0 0 0 -0.5964167 0.4217301 0 -0.4217301 0 0.7356284 0 -0.4217301 0 -0.4217301 -0.5964167 0 0 -0.4217301 0 0.4217301 0 0 0.5964167 0.4217301 0 0.4217301 0.5964167 0 0</float_array>
          <technique_common>
            <accessor source="#Weapon_Root__miiWeaponShell11A-mesh-positions-array" count="82" stride="3">
              <param name="X" type="float"/>
              <param name="Y" type="float"/>
              <param name="Z" type="float"/>
            </accessor>
          </technique_common>
        </source>
        <source id="Weapon_Root__miiWeaponShell11A-mesh-normals">
          <float_array id="Weapon_Root__miiWeaponShell11A-mesh-normals-array" count="192">0 -1 0 0 -1 0 0 -1 0 -0.5795688 -0.1665459 -0.7977234 -0.937776 -0.16654 -0.3046978 -0.5827659 -0.1304089 -0.8021082 -0.9429356 -0.1304063 -0.306377 -0.937776 -0.16654 0.3046978 -0.9429356 -0.1304063 0.306377 -0.5795688 -0.1665459 0.7977234 -0.5827659 -0.1304089 0.8021082 0 -0.1665415 0.9860345 0 -0.1304063 0.9914606 0.5795688 -0.1665459 0.7977234 0.5827659 -0.1304089 0.8021082 0.937776 -0.16654 0.3046978 0.9429356 -0.1304063 0.306377 0.937776 -0.16654 -0.3046978 0.9429356 -0.1304063 -0.306377 0.5795688 -0.1665459 -0.7977234 0.5827659 -0.1304089 -0.8021082 0.3051032 -0.1585792 -0.9390233 0.3066228 -0.1241201 -0.9437037 -0.3051032 -0.1585792 -0.9390233 -0.3066228 -0.1241201 -0.9437037 0.9490876 -0.06436508 0.3083665 0.9490876 -0.06436508 -0.3083665 0.5865674 -0.06436371 0.807339 0 -0.06436365 0.9979265 -0.5865674 -0.06436371 0.807339 -0.9490876 -0.06436508 0.3083665 -0.9490876 -0.06436508 -0.3083665 -0.5865674 -0.06436371 -0.807339 -0.308429 -0.06122189 -0.9492752 0.5865674 -0.06436371 -0.807339 0.308429 -0.06122189 -0.9492752 0.950528 -0.03351032 0.3088262 0.950528 -0.03351032 -0.3088262 0.5874548 -0.03350955 0.8085629 0 -0.03350991 0.9994384 -0.5874548 -0.03350955 0.8085629 -0.950528 -0.03351032 0.3088262 -0.950528 -0.03351032 -0.3088262 -0.5874548 -0.03350955 -0.8085629 -0.3088523 -0.03189229 -0.9505752 0.5874548 -0.03350955 -0.8085629 0.3088525 -0.03186184 -0.9505761 0.6785098 0.281512 -0.6785098 0.3693431 0.2616104 -0.8917094 -0.3693431 0.2616104 -0.8917094 -0.6785098 0.281512 -0.6785098 -0.9595583 0.2815103 0 -0.6785098 0.281512 0.6785098 0 0.2815103 0.9595583 0.6785098 0.281512 0.6785098 0.9595583 0.2815103 0 0 -0.6297696 0.776782 -0.5492644 -0.6297755 0.5492644 0.5492644 -0.6297755 0.5492644 0.776782 -0.6297696 0 0.5492644 -0.6297755 -0.5492644 0 -0.6297696 -0.776782 -0.5492644 -0.6297755 -0.5492644 -0.776782 -0.6297696 0</float_array>
          <technique_common>
            <accessor source="#Weapon_Root__miiWeaponShell11A-mesh-normals-array" count="64" stride="3">
              <param name="X" type="float"/>
              <param name="Y" type="float"/>
              <param name="Z" type="float"/>
            </accessor>
          </technique_common>
        </source>
        <source id="Weapon_Root__miiWeaponShell11A-mesh-map-0">
          <float_array id="Weapon_Root__miiWeaponShell11A-mesh-map-0-array" count="564">0.8125 0.78125 0.962937 0.827738 0.905475 0.902956 0.8125 0.78125 0.962937 0.734762 0.962937 0.827738 0.8125 0.78125 0.905475 0.659544 0.962937 0.734762 0.8125 0.78125 0.8125 0.630813 0.905475 0.659544 0.8125 0.78125 0.719525 0.659544 0.8125 0.630813 0.8125 0.78125 0.662063 0.734762 0.719525 0.659544 0.8125 0.78125 0.662063 0.827738 0.662063 0.734762 0.8125 0.78125 0.719525 0.902956 0.662063 0.827738 0.8125 0.78125 0.8125 0.931687 0.719525 0.902956 0.8125 0.78125 0.905475 0.902956 0.8125 0.931687 -0.450249 0.315407 -0.337687 0.315407 -0.450249 0.488863 -0.450249 0.488863 -0.337687 0.315407 -0.337687 0.488863 -0.337687 0.315407 -0.225124 0.315407 -0.337687 0.488863 -0.337687 0.488863 -0.225124 0.315407 -0.225124 0.488863 -0.225124 0.315407 -0.112562 0.315407 -0.225124 0.488863 -0.225124 0.488863 -0.112562 0.315407 -0.112562 0.488863 -0.112562 0.315407 0 0.315407 -0.112562 0.488863 -0.112562 0.488863 0 0.315407 0 0.488863 0 0.315407 0.112562 0.315407 0 0.488863 0 0.488863 0.112562 0.315407 0.112562 0.488863 0.112562 0.315407 0.225124 0.315407 0.112562 0.488863 0.112562 0.488863 0.225124 0.315407 0.225124 0.488863 0.225124 0.315407 0.337687 0.315407 0.225124 0.488863 0.225124 0.488863 0.337687 0.315407 0.337687 0.488863 0.337687 0.315407 0.450249 0.315407 0.337687 0.488863 0.337687 0.488863 0.450249 0.315407 0.450249 0.488863 0.450249 0.315407 0.562811 0.315407 0.450249 0.488863 0.450249 0.488863 0.562811 0.315407 0.562811 0.488863 -0.562811 0.315407 -0.450249 0.315407 -0.562811 0.488863 -0.562811 0.488863 -0.450249 0.315407 -0.450249 0.488863 0.225124 0.488863 0.337687 0.488863 0.225124 0.771172 0.225124 0.771172 0.337687 0.488863 0.337687 0.771172 0.112562 0.488863 0.225124 0.488863 0.112562 0.771172 0.112562 0.771172 0.225124 0.488863 0.225124 0.771172 0 0.488863 0.112562 0.488863 0 0.771172 0 0.771172 0.112562 0.488863 0.112562 0.771172 -0.112562 0.488863 0 0.488863 -0.112562 0.771172 -0.112562 0.771172 0 0.488863 0 0.771172 -0.225124 0.488863 -0.112562 0.488863 -0.225124 0.771172 -0.225124 0.771172 -0.112562 0.488863 -0.112562 0.771172 -0.337687 0.488863 -0.225124 0.488863 -0.337687 0.771172 -0.337687 0.771172 -0.225124 0.488863 -0.225124 0.771172 -0.450249 0.488863 -0.337687 0.488863 -0.450249 0.771172 -0.450249 0.771172 -0.337687 0.488863 -0.337687 0.771172 -0.562811 0.488863 -0.450249 0.488863 -0.562811 0.771172 -0.562811 0.771172 -0.450249 0.488863 -0.450249 0.771172 0.450249 0.488863 0.562811 0.488863 0.450249 0.771172 0.450249 0.771172 0.562811 0.488863 0.562811 0.771172 0.337687 0.488863 0.450249 0.488863 0.337687 0.771172 0.337687 0.771172 0.450249 0.488863 0.450249 0.771172 0.225124 0.771172 0.337687 0.771172 0.225124 0.965843 0.225124 0.965843 0.337687 0.771172 0.337687 0.965843 0.112562 0.771172 0.225124 0.771172 0.112562 0.965843 0.112562 0.965843 0.225124 0.771172 0.225124 0.965843 0 0.771172 0.112562 0.771172 0 0.965843 0 0.965843 0.112562 0.771172 0.112562 0.965843 -0.112562 0.771172 0 0.771172 -0.112562 0.965843 -0.112562 0.965843 0 0.771172 0 0.965843 -0.225124 0.771172 -0.112562 0.771172 -0.225124 0.965843 -0.225124 0.965843 -0.112562 0.771172 -0.112562 0.965843 -0.337687 0.771172 -0.225124 0.771172 -0.337687 0.965843 -0.337687 0.965843 -0.225124 0.771172 -0.225124 0.965843 -0.450249 0.771172 -0.337687 0.771172 -0.450249 0.965843 -0.450249 0.965843 -0.337687 0.771172 -0.337687 0.965843 -0.562811 0.771172 -0.450249 0.771172 -0.562811 0.965843 -0.562811 0.965843 -0.450249 0.771172 -0.450249 0.965843 0.450249 0.771172 0.562811 0.771172 0.450249 0.965843 0.450249 0.965843 0.562811 0.771172 0.562811 0.965843 0.337687 0.771172 0.450249 0.771172 0.337687 0.965843 0.337687 0.965843 0.450249 0.771172 0.450249 0.965843 0.375 0.03125 0.5 0.03125 0.375 0.25 0.375 0.25 0.5 0.03125 0.5 0.25 -0.5 0.03125 -0.375 0.03125 -0.5 0.25 -0.5 0.25 -0.375 0.03125 -0.375 0.25 -0.375 0.03125 -0.25 0.03125 -0.375 0.25 -0.375 0.25 -0.25 0.03125 -0.25 0.25 -0.25 0.03125 -0.125 0.03125 -0.25 0.25 -0.25 0.25 -0.125 0.03125 -0.125 0.25 -0.125 0.03125 0 0.03125 -0.125 0.25 -0.125 0.25 0 0.03125 0 0.25 0 0.03125 0.125 0.03125 0 0.25 0 0.25 0.125 0.03125 0.125 0.25 0.125 0.03125 0.25 0.03125 0.125 0.25 0.125 0.25 0.25 0.03125 0.25 0.25 0.25 0.03125 0.375 0.03125 0.25 0.25 0.25 0.25 0.375 0.03125 0.375 0.25 0.859375 0.02182817 0.943377 0.05662298 0.859375 0.135873 0.775373 0.05662298 0.859375 0.02182817 0.859375 0.135873 0.740578 0.140625 0.775373 0.05662298 0.859375 0.135873 0.775373 0.224627 0.740578 0.140625 0.859375 0.135873 0.859375 0.259422 0.775373 0.224627 0.859375 0.135873 0.943377 0.224627 0.859375 0.259422 0.859375 0.135873 0.978172 0.140625 0.943377 0.224627 0.859375 0.135873 0.943377 0.05662298 0.978172 0.140625 0.859375 0.135873</float_array>
          <technique_common>
            <accessor source="#Weapon_Root__miiWeaponShell11A-mesh-map-0-array" count="282" stride="2">
              <param name="S" type="float"/>
              <param name="T" type="float"/>
            </accessor>
          </technique_common>
        </source>
        <vertices id="Weapon_Root__miiWeaponShell11A-mesh-vertices">
          <input semantic="POSITION" source="#Weapon_Root__miiWeaponShell11A-mesh-positions"/>
        </vertices>
        <triangles material="miiWeaponShell11A-material" count="94">
          <input semantic="VERTEX" source="#Weapon_Root__miiWeaponShell11A-mesh-vertices" offset="0"/>
          <input semantic="NORMAL" source="#Weapon_Root__miiWeaponShell11A-mesh-normals" offset="1"/>
          <input semantic="TEXCOORD" source="#Weapon_Root__miiWeaponShell11A-mesh-map-0" offset="2" set="0"/>
          <p>0 0 0 1 0 1 2 0 2 0 1 3 3 1 4 1 1 5 0 2 6 4 2 7 3 2 8 0 1 9 5 1 10 4 1 11 0 1 12 6 1 13 5 1 14 0 2 15 7 2 16 6 2 17 0 1 18 8 1 19 7 1 20 0 0 21 9 0 22 8 0 23 0 1 24 10 1 25 9 1 26 0 1 27 2 1 28 10 1 29 11 3 30 12 4 31 13 5 32 13 5 33 12 4 34 14 6 35 12 4 36 15 7 37 14 6 38 14 6 39 15 7 40 16 8 41 15 7 42 17 9 43 16 8 44 16 8 45 17 9 46 18 10 47 17 9 48 19 11 49 18 10 50 18 10 51 19 11 52 20 12 53 19 11 54 21 13 55 20 12 56 20 12 57 21 13 58 22 14 59 21 13 60 23 15 61 22 14 62 22 14 63 23 15 64 24 16 65 23 15 66 25 17 67 24 16 68 24 16 69 25 17 70 26 18 71 25 17 72 27 19 73 26 18 74 26 18 75 27 19 76 28 20 77 27 19 78 29 21 79 28 20 80 28 20 81 29 21 82 30 22 83 31 23 84 11 3 85 32 24 86 32 24 87 11 3 88 13 5 89 24 16 90 26 18 91 33 25 92 33 25 93 26 18 94 34 26 95 22 14 96 24 16 97 35 27 98 35 27 99 24 16 100 33 25 101 20 12 102 22 14 103 36 28 104 36 28 105 22 14 106 35 27 107 18 10 108 20 12 109 37 29 110 37 29 111 20 12 112 36 28 113 16 8 114 18 10 115 38 30 116 38 30 117 18 10 118 37 29 119 14 6 120 16 8 121 39 31 122 39 31 123 16 8 124 38 30 125 13 5 126 14 6 127 40 32 128 40 32 129 14 6 130 39 31 131 32 24 132 13 5 133 41 33 134 41 33 135 13 5 136 40 32 137 28 20 138 30 22 139 42 34 140 42 34 141 30 22 142 43 35 143 26 18 144 28 20 145 34 26 146 34 26 147 28 20 148 42 34 149 33 25 150 34 26 151 44 36 152 44 36 153 34 26 154 45 37 155 35 27 156 33 25 157 46 38 158 46 38 159 33 25 160 44 36 161 36 28 162 35 27 163 47 39 164 47 39 165 35 27 166 46 38 167 37 29 168 36 28 169 48 40 170 48 40 171 36 28 172 47 39 173 38 30 174 37 29 175 49 41 176 49 41 177 37 29 178 48 40 179 39 31 180 38 30 181 50 42 182 50 42 183 38 30 184 49 41 185 40 32 186 39 31 187 51 43 188 51 43 189 39 31 190 50 42 191 41 33 192 40 32 193 52 44 194 52 44 195 40 32 196 51 43 197 42 34 198 43 35 199 53 45 200 53 45 201 43 35 202 54 46 203 34 26 204 42 34 205 45 37 206 45 37 207 42 34 208 53 45 209 55 47 210 56 48 211 57 47 212 57 47 213 56 48 214 58 48 215 59 49 216 60 50 217 61 49 218 61 49 219 60 50 220 62 50 221 60 50 222 63 51 223 62 50 224 62 50 225 63 51 226 64 51 227 63 51 228 65 52 229 64 51 230 64 51 231 65 52 232 66 52 233 65 52 234 67 53 235 66 52 236 66 52 237 67 53 238 68 53 239 67 53 240 69 54 241 68 53 242 68 53 243 69 54 244 70 54 245 69 54 246 71 55 247 70 54 248 70 54 249 71 55 250 72 55 251 71 55 252 55 47 253 72 55 254 72 55 255 55 47 256 57 47 257 73 56 258 74 57 259 75 1 260 76 58 261 73 56 262 75 1 263 77 59 264 76 58 265 75 1 266 78 60 267 77 59 268 75 1 269 79 61 270 78 60 271 75 1 272 80 62 273 79 61 274 75 1 275 81 63 276 80 62 277 75 1 278 74 57 279 81 63 280 75 1 281</p>
        </triangles>
      </mesh>
    </geometry>
  </library_geometries>
  <library_controllers>
    <controller id="Armature_Weapon_Root__miiWeaponShell11B-skin" name="Armature">
      <skin source="#Weapon_Root__miiWeaponShell11B-mesh">
        <bind_shape_matrix>1 0 0 0 0 1 0 0 0 0 1 0 0 0 0 1</bind_shape_matrix>
        <source id="Armature_Weapon_Root__miiWeaponShell11B-skin-joints">
          <Name_array id="Armature_Weapon_Root__miiWeaponShell11B-skin-joints-array" count="1">Weapon_Root</Name_array>
          <technique_common>
            <accessor source="#Armature_Weapon_Root__miiWeaponShell11B-skin-joints-array" count="1" stride="1">
              <param name="JOINT" type="name"/>
            </accessor>
          </technique_common>
        </source>
        <source id="Armature_Weapon_Root__miiWeaponShell11B-skin-bind_poses">
          <float_array id="Armature_Weapon_Root__miiWeaponShell11B-skin-bind_poses-array" count="16">1 0 0 0 0 -1.62921e-7 1 0 0 -1 -1.62921e-7 0 0 0 0 1</float_array>
          <technique_common>
            <accessor source="#Armature_Weapon_Root__miiWeaponShell11B-skin-bind_poses-array" count="1" stride="16">
              <param name="TRANSFORM" type="float4x4"/>
            </accessor>
          </technique_common>
        </source>
        <source id="Armature_Weapon_Root__miiWeaponShell11B-skin-weights">
          <float_array id="Armature_Weapon_Root__miiWeaponShell11B-skin-weights-array" count="122">1 1 1 1 1 1 1 1 1 1 1 1 1 1 1 1 1 1 1 1 1 1 1 1 1 1 1 1 1 1 1 1 1 1 1 1 1 1 1 1 1 1 1 1 1 1 1 1 1 1 1 1 1 1 1 1 1 1 1 1 1 1 1 1 1 1 1 1 1 1 1 1 1 1 1 1 1 1 1 1 1 1 1 1 1 1 1 1 1 1 1 1 1 1 1 1 1 1 1 1 1 1 1 1 1 1 1 1 1 1 1 1 1 1 1 1 1 1 1 1 1 1</float_array>
          <technique_common>
            <accessor source="#Armature_Weapon_Root__miiWeaponShell11B-skin-weights-array" count="122" stride="1">
              <param name="WEIGHT" type="float"/>
            </accessor>
          </technique_common>
        </source>
        <joints>
          <input semantic="JOINT" source="#Armature_Weapon_Root__miiWeaponShell11B-skin-joints"/>
          <input semantic="INV_BIND_MATRIX" source="#Armature_Weapon_Root__miiWeaponShell11B-skin-bind_poses"/>
        </joints>
        <vertex_weights count="122">
          <input semantic="JOINT" source="#Armature_Weapon_Root__miiWeaponShell11B-skin-joints" offset="0"/>
          <input semantic="WEIGHT" source="#Armature_Weapon_Root__miiWeaponShell11B-skin-weights" offset="1"/>
          <vcount>1 1 1 1 1 1 1 1 1 1 1 1 1 1 1 1 1 1 1 1 1 1 1 1 1 1 1 1 1 1 1 1 1 1 1 1 1 1 1 1 1 1 1 1 1 1 1 1 1 1 1 1 1 1 1 1 1 1 1 1 1 1 1 1 1 1 1 1 1 1 1 1 1 1 1 1 1 1 1 1 1 1 1 1 1 1 1 1 1 1 1 1 1 1 1 1 1 1 1 1 1 1 1 1 1 1 1 1 1 1 1 1 1 1 1 1 1 1 1 1 1 1 </vcount>
          <v>0 0 0 1 0 2 0 3 0 4 0 5 0 6 0 7 0 8 0 9 0 10 0 11 0 12 0 13 0 14 0 15 0 16 0 17 0 18 0 19 0 20 0 21 0 22 0 23 0 24 0 25 0 26 0 27 0 28 0 29 0 30 0 31 0 32 0 33 0 34 0 35 0 36 0 37 0 38 0 39 0 40 0 41 0 42 0 43 0 44 0 45 0 46 0 47 0 48 0 49 0 50 0 51 0 52 0 53 0 54 0 55 0 56 0 57 0 58 0 59 0 60 0 61 0 62 0 63 0 64 0 65 0 66 0 67 0 68 0 69 0 70 0 71 0 72 0 73 0 74 0 75 0 76 0 77 0 78 0 79 0 80 0 81 0 82 0 83 0 84 0 85 0 86 0 87 0 88 0 89 0 90 0 91 0 92 0 93 0 94 0 95 0 96 0 97 0 98 0 99 0 100 0 101 0 102 0 103 0 104 0 105 0 106 0 107 0 108 0 109 0 110 0 111 0 112 0 113 0 114 0 115 0 116 0 117 0 118 0 119 0 120 0 121</v>
        </vertex_weights>
      </skin>
    </controller>
    <controller id="Armature_Weapon_Root__miiWeaponShell11A-skin" name="Armature">
      <skin source="#Weapon_Root__miiWeaponShell11A-mesh">
        <bind_shape_matrix>1 0 0 0 0 1 0 0 0 0 1 0 0 0 0 1</bind_shape_matrix>
        <source id="Armature_Weapon_Root__miiWeaponShell11A-skin-joints">
          <Name_array id="Armature_Weapon_Root__miiWeaponShell11A-skin-joints-array" count="1">Weapon_Root</Name_array>
          <technique_common>
            <accessor source="#Armature_Weapon_Root__miiWeaponShell11A-skin-joints-array" count="1" stride="1">
              <param name="JOINT" type="name"/>
            </accessor>
          </technique_common>
        </source>
        <source id="Armature_Weapon_Root__miiWeaponShell11A-skin-bind_poses">
          <float_array id="Armature_Weapon_Root__miiWeaponShell11A-skin-bind_poses-array" count="16">1 0 0 0 0 -1.62921e-7 1 0 0 -1 -1.62921e-7 0 0 0 0 1</float_array>
          <technique_common>
            <accessor source="#Armature_Weapon_Root__miiWeaponShell11A-skin-bind_poses-array" count="1" stride="16">
              <param name="TRANSFORM" type="float4x4"/>
            </accessor>
          </technique_common>
        </source>
        <source id="Armature_Weapon_Root__miiWeaponShell11A-skin-weights">
          <float_array id="Armature_Weapon_Root__miiWeaponShell11A-skin-weights-array" count="82">1 1 1 1 1 1 1 1 1 1 1 1 1 1 1 1 1 1 1 1 1 1 1 1 1 1 1 1 1 1 1 1 1 1 1 1 1 1 1 1 1 1 1 1 1 1 1 1 1 1 1 1 1 1 1 1 1 1 1 1 1 1 1 1 1 1 1 1 1 1 1 1 1 1 1 1 1 1 1 1 1 1</float_array>
          <technique_common>
            <accessor source="#Armature_Weapon_Root__miiWeaponShell11A-skin-weights-array" count="82" stride="1">
              <param name="WEIGHT" type="float"/>
            </accessor>
          </technique_common>
        </source>
        <joints>
          <input semantic="JOINT" source="#Armature_Weapon_Root__miiWeaponShell11A-skin-joints"/>
          <input semantic="INV_BIND_MATRIX" source="#Armature_Weapon_Root__miiWeaponShell11A-skin-bind_poses"/>
        </joints>
        <vertex_weights count="82">
          <input semantic="JOINT" source="#Armature_Weapon_Root__miiWeaponShell11A-skin-joints" offset="0"/>
          <input semantic="WEIGHT" source="#Armature_Weapon_Root__miiWeaponShell11A-skin-weights" offset="1"/>
          <vcount>1 1 1 1 1 1 1 1 1 1 1 1 1 1 1 1 1 1 1 1 1 1 1 1 1 1 1 1 1 1 1 1 1 1 1 1 1 1 1 1 1 1 1 1 1 1 1 1 1 1 1 1 1 1 1 1 1 1 1 1 1 1 1 1 1 1 1 1 1 1 1 1 1 1 1 1 1 1 1 1 1 1 </vcount>
          <v>0 0 0 1 0 2 0 3 0 4 0 5 0 6 0 7 0 8 0 9 0 10 0 11 0 12 0 13 0 14 0 15 0 16 0 17 0 18 0 19 0 20 0 21 0 22 0 23 0 24 0 25 0 26 0 27 0 28 0 29 0 30 0 31 0 32 0 33 0 34 0 35 0 36 0 37 0 38 0 39 0 40 0 41 0 42 0 43 0 44 0 45 0 46 0 47 0 48 0 49 0 50 0 51 0 52 0 53 0 54 0 55 0 56 0 57 0 58 0 59 0 60 0 61 0 62 0 63 0 64 0 65 0 66 0 67 0 68 0 69 0 70 0 71 0 72 0 73 0 74 0 75 0 76 0 77 0 78 0 79 0 80 0 81</v>
        </vertex_weights>
      </skin>
    </controller>
  </library_controllers>
  <library_visual_scenes>
    <visual_scene id="Scene" name="Scene">
      <node id="Armature" name="Armature" type="NODE">
        <matrix sid="transform">1 0 0 0 0 -1.62921e-7 -1 0 0 1 -1.62921e-7 0 0 0 0 1</matrix>
        <node id="Armature_Weapon_Root" name="Weapon_Root" sid="Weapon_Root" type="JOINT">
          <matrix sid="transform">1 0 0 0 0 1 0 0 0 0 1 0 0 0 0 1</matrix>
          <node id="Armature_Set_Eft" name="Set_Eft" sid="Set_Eft" type="JOINT">
            <matrix sid="transform">1 0 0 0 0 1 0 6.545 0 0 1 0 0 0 0 1</matrix>
            <extra>
              <technique profile="blender">
                <layer sid="layer" type="string">0</layer>
                <tip_x sid="tip_x" type="float">0</tip_x>
                <tip_y sid="tip_y" type="float">6.545</tip_y>
                <tip_z sid="tip_z" type="float">0</tip_z>
              </technique>
            </extra>
          </node>
          <extra>
            <technique profile="blender">
              <layer sid="layer" type="string">0</layer>
              <tip_x sid="tip_x" type="float">0</tip_x>
              <tip_y sid="tip_y" type="float">6.545</tip_y>
              <tip_z sid="tip_z" type="float">0</tip_z>
            </technique>
          </extra>
        </node>
        <node id="Weapon_Root__miiWeaponShell11A" name="Weapon_Root__miiWeaponShell11A" type="NODE">
          <matrix sid="transform">1 0 0 0 0 1 0 0 0 0 1 0 0 0 0 1</matrix>
          <instance_controller url="#Armature_Weapon_Root__miiWeaponShell11A-skin">
            <skeleton>#Armature_Weapon_Root</skeleton>
            <bind_material>
              <technique_common>
                <instance_material symbol="miiWeaponShell11A-material" target="#miiWeaponShell11A-material">
                  <bind_vertex_input semantic="Weapon_Root__miiWeaponShell11A-texcoord" input_semantic="TEXCOORD" input_set="0"/>
                </instance_material>
              </technique_common>
            </bind_material>
          </instance_controller>
        </node>
        <node id="Weapon_Root__miiWeaponShell11B" name="Weapon_Root__miiWeaponShell11B" type="NODE">
          <matrix sid="transform">1 0 0 0 0 1 0 0 0 0 1 0 0 0 0 1</matrix>
          <instance_controller url="#Armature_Weapon_Root__miiWeaponShell11B-skin">
            <skeleton>#Armature_Weapon_Root</skeleton>
            <bind_material>
              <technique_common>
                <instance_material symbol="miiWeaponShell11B-material" target="#miiWeaponShell11B-material">
                  <bind_vertex_input semantic="Weapon_Root__miiWeaponShell11B-texcoord" input_semantic="TEXCOORD" input_set="0"/>
                </instance_material>
              </technique_common>
            </bind_material>
          </instance_controller>
        </node>
      </node>
    </visual_scene>
  </library_visual_scenes>
  <scene>
    <instance_visual_scene url="#Scene"/>
  </scene>
</COLLADA>